<svg width="300" height="64" viewBox="0 0 300 64" fill="none" xmlns="http://www.w3.org/2000/svg">
<path d="M5.36094 52.9939C3.19306 57.949 6.82349 63.5 12.2321 63.5H287.768C293.177 63.5 296.807 57.949 294.639 52.9939L273.639 4.99386C272.445 2.26396 269.748 0.5 266.768 0.5H33.2321C30.2524 0.5 27.5553 2.26395 26.3609 4.99386L5.36094 52.9939Z" fill="white" stroke="#2C2C32"/>
<rect width="163" height="25" transform="translate(79 20)" fill="white"/>
<path d="M81.1548 40V25.72H91.8748V40H90.0948V27.3H82.9548V40H81.1548ZM97.3038 40H95.5438V29.28H97.3038V40ZM108.66 29.28V38.52H110.22V43.72H108.52V40H101.06V43.72H99.38V38.52H100.24C101.16 37.2533 101.847 35.8133 102.3 34.2C102.767 32.5733 103.007 30.9333 103.02 29.28H108.66ZM106.96 30.66H104.58C104.513 31.5667 104.367 32.5067 104.14 33.48C103.927 34.44 103.64 35.36 103.28 36.24C102.933 37.12 102.527 37.88 102.06 38.52H106.96V30.66ZM119.721 30.76H116.221V40H114.481V30.76H111.021V29.28H119.721V30.76ZM126.933 29.08C128.253 29.08 129.313 29.54 130.113 30.46C130.926 31.38 131.333 32.7667 131.333 34.62C131.333 36.4467 130.926 37.8333 130.113 38.78C129.313 39.7267 128.246 40.2 126.913 40.2C126.086 40.2 125.399 40.0467 124.853 39.74C124.319 39.4333 123.899 39.0667 123.593 38.64H123.473C123.486 38.8667 123.506 39.1533 123.533 39.5C123.573 39.8467 123.593 40.1467 123.593 40.4V44.8H121.833V29.28H123.273L123.513 30.74H123.593C123.913 30.2733 124.333 29.88 124.853 29.56C125.373 29.24 126.066 29.08 126.933 29.08ZM126.613 30.56C125.519 30.56 124.746 30.8667 124.293 31.48C123.839 32.0933 123.606 33.0267 123.593 34.28V34.62C123.593 35.94 123.806 36.96 124.233 37.68C124.673 38.3867 125.479 38.74 126.653 38.74C127.293 38.74 127.826 38.5667 128.253 38.22C128.679 37.86 128.993 37.3667 129.193 36.74C129.406 36.1133 129.513 35.4 129.513 34.6C129.513 33.3733 129.273 32.3933 128.793 31.66C128.326 30.9267 127.599 30.56 126.613 30.56ZM135.798 29.28V35.82C135.798 35.9933 135.791 36.24 135.778 36.56C135.764 36.8667 135.744 37.1867 135.718 37.52C135.704 37.84 135.691 38.0867 135.678 38.26L141.418 29.28H143.578V40H141.938V33.68C141.938 33.4667 141.938 33.1867 141.938 32.84C141.951 32.4933 141.964 32.1533 141.978 31.82C141.991 31.4733 142.004 31.2133 142.018 31.04L136.318 40H134.138V29.28H135.798ZM158.489 29.28V40H156.909V33.16C156.909 32.88 156.916 32.5933 156.929 32.3C156.956 31.9933 156.982 31.6867 157.009 31.38H156.949L153.449 40H151.969L148.569 31.38H148.509C148.549 31.98 148.569 32.5933 148.569 33.22V40H146.989V29.28H149.329L152.709 37.9L156.149 29.28H158.489ZM165.971 29.1C167.278 29.1 168.244 29.3867 168.871 29.96C169.498 30.5333 169.811 31.4467 169.811 32.7V40H168.531L168.191 38.48H168.111C167.644 39.0667 167.151 39.5 166.631 39.78C166.111 40.06 165.404 40.2 164.511 40.2C163.538 40.2 162.731 39.9467 162.091 39.44C161.451 38.92 161.131 38.1133 161.131 37.02C161.131 35.9533 161.551 35.1333 162.391 34.56C163.231 33.9733 164.524 33.6533 166.271 33.6L168.091 33.54V32.9C168.091 32.0067 167.898 31.3867 167.511 31.04C167.124 30.6933 166.578 30.52 165.871 30.52C165.311 30.52 164.778 30.6067 164.271 30.78C163.764 30.94 163.291 31.1267 162.851 31.34L162.311 30.02C162.778 29.7667 163.331 29.5533 163.971 29.38C164.611 29.1933 165.278 29.1 165.971 29.1ZM168.071 34.76L166.491 34.82C165.158 34.8733 164.231 35.0867 163.711 35.46C163.204 35.8333 162.951 36.36 162.951 37.04C162.951 37.64 163.131 38.08 163.491 38.36C163.864 38.64 164.338 38.78 164.911 38.78C165.804 38.78 166.551 38.5333 167.151 38.04C167.764 37.5333 168.071 36.76 168.071 35.72V34.76ZM180.522 30.76H177.022V40H175.282V30.76H171.822V29.28H180.522V30.76ZM184.294 29.28V35.82C184.294 35.9933 184.287 36.24 184.274 36.56C184.26 36.8667 184.24 37.1867 184.214 37.52C184.2 37.84 184.187 38.0867 184.174 38.26L189.914 29.28H192.074V40H190.434V33.68C190.434 33.4667 190.434 33.1867 190.434 32.84C190.447 32.4933 190.46 32.1533 190.474 31.82C190.487 31.4733 190.5 31.2133 190.514 31.04L184.814 40H182.634V29.28H184.294Z" fill="#2C2C32"/>
<path d="M230 24.1665L228.59 25.6353L234.17 31.4582H222V33.5415H234.17L228.59 39.3644L230 40.8332L238 32.4998L230 24.1665Z" fill="#2C2C32"/>
</svg>
