<svg width="50" height="50" viewBox="0 0 50 50" fill="none" xmlns="http://www.w3.org/2000/svg">
<path d="M36.2136 17.3817C35.6052 12.3491 33.2832 7.75892 29.7176 4.53981C26.1519 1.32071 21.6088 -0.286943 17.0075 0.042139C12.4061 0.371221 8.09008 2.61246 4.93262 6.3124C1.77517 10.0123 0.0120493 14.8947 0 19.9716C0 24.7061 1.49318 29.0577 3.99091 32.4859C5.82727 35.0108 6.81818 37.801 6.81818 40.7563V50H27.2727L27.275 42.4929H31.8182C33.0237 42.4929 34.1798 41.9656 35.0323 41.0271C35.8847 40.0885 36.3636 38.8155 36.3636 37.4882V30.1588L40.8182 28.0568C41.5954 27.6914 41.6636 26.8206 41.3272 26.2375L36.2136 17.3817ZM4.54545 19.9716C4.54196 16.1561 5.85797 12.4822 8.22607 9.6965C10.5942 6.91082 13.8367 5.22232 17.2948 4.97412C20.7528 4.72592 24.167 5.93663 26.8435 8.36024C29.52 10.7838 31.2581 14.2385 31.7045 18.0223L31.8341 19.1283L35.3409 25.1966L31.8182 26.8581V37.4882H22.7318L22.7273 44.9953H11.3636V40.7563C11.3636 36.6549 10.0204 32.7687 7.53409 29.3555C5.59385 26.6951 4.53918 23.3836 4.54545 19.9716ZM45.8045 40.2458L42.0204 37.4682C44.2649 33.7713 45.4602 29.4231 45.4545 24.9764C45.4613 20.529 44.2668 16.1799 42.0227 12.482L45.8045 9.70442C48.5479 14.2241 50.0084 19.5402 50 24.9764C50 30.6267 48.4545 35.8767 45.8045 40.2458Z" fill="white"/>
</svg>
