<svg width="50" height="51" viewBox="0 0 50 51" fill="none" xmlns="http://www.w3.org/2000/svg">
<path d="M47.5 0.0322266C48.163 0.0322266 48.7989 0.324884 49.2678 0.845819C49.7366 1.36675 50 2.07329 50 2.81V47.2544C50 47.9912 49.7366 48.6977 49.2678 49.2186C48.7989 49.7396 48.163 50.0322 47.5 50.0322H2.5C1.83696 50.0322 1.20107 49.7396 0.732233 49.2186C0.263392 48.6977 0 47.9912 0 47.2544L0 2.81C0 2.07329 0.263392 1.36675 0.732233 0.845819C1.20107 0.324884 1.83696 0.0322266 2.5 0.0322266L47.5 0.0322266ZM45 22.2544H5V44.4767H45V22.2544ZM45 5.58778H5V16.6989H45V5.58778ZM42.5 8.36556V13.9211H32.5V8.36556H42.5Z" fill="white"/>
</svg>
